<svg xmlns="http://www.w3.org/2000/svg" viewBox="0 0 714.94 250.79"><defs><style>.cls-1{fill:#67666c;}.cls-2{fill:#f94c07;}.cls-3{fill:#f5b233;}.cls-4{fill:#e21e1b;}.cls-5{fill:#f5b335;}.cls-6{fill:#e21d1a;}</style></defs><title>Asset 1</title><g id="Layer_2" data-name="Layer 2"><g id="Layer_1-2" data-name="Layer 1"><path class="cls-1" d="M337.74,250.79c-26.06-.06-45.94-19.37-45.9-44.57s20.24-44.59,46.53-44.53,46.06,19.37,45.87,44.49C384,231.63,364,250.85,337.74,250.79ZM364,206.31c0-15.54-11.6-27.46-26.45-27.22-14.55.24-25.76,12-25.72,27,0,15.24,11.36,27,26.12,27C353.12,233.17,364.06,221.92,364,206.31Z"/><path class="cls-1" d="M575.83,221.89H561.05V249H542V163.67c.84-1,2.09-.69,3.2-.67,14.15.27,28.34-1,42.43.6,14.75,1.64,23.84,9.57,26,21.58,2.61,14.75-2.63,25.37-16.08,32.61a17.35,17.35,0,0,0-1.58,1.17c3.39,5,6.74,9.86,10.1,14.75s6.77,9.84,10.54,15.31H594.19ZM561,204.69c7.81,0,15.27.38,22.67-.11a11.5,11.5,0,0,0,11-11.39c.24-6.34-3.13-11.07-9.35-12.24-8-1.51-16.11-.7-24.37-.73Z"/><path class="cls-1" d="M714.94,249.11h-20l-8-19H650.46l-8.05,19.1H622.93l37-86.46h18ZM668.7,185.46l-11.2,27.18h22.42Z"/><path class="cls-1" d="M279.35,173,269.57,187c-5.53-3.2-10.76-6.41-16.86-7.66a22.57,22.57,0,0,0-10.38-.09c-3.42.89-6.15,2.67-6.5,6.61s1.94,6.34,5.29,7.56c4.52,1.65,9.16,3,13.79,4.3a85.6,85.6,0,0,1,13.15,4.62c9.15,4.31,14.11,11.15,13.9,21.6-.22,10.7-4.74,18.52-14.49,23.06-8.61,4-17.67,4.32-26.87,2.73a54.53,54.53,0,0,1-27.31-13l11.19-13.35c6.53,4.77,13,8.76,20.79,10a25.08,25.08,0,0,0,11.36-.5c3.21-1,5.73-2.66,6.2-6.34.49-3.9-1.48-6.25-4.81-7.85-4.68-2.24-9.76-3.24-14.67-4.78-4.28-1.34-8.61-2.57-12.75-4.25-19.34-7.87-16.58-33.32-3.81-41.8,10.37-6.88,21.56-7.08,33.1-4.49A43.87,43.87,0,0,1,279.35,173Z"/><path class="cls-1" d="M520.23,180.77H501.93v68.28H482.72V180.88H464.27l-13.82-17.53H533.9Z"/><path class="cls-1" d="M400,163.23h18.76v68.67h42.87V249H400Z"/><path class="cls-2" d="M25.4,199c5.63,3.94,12.41,5.32,18.48,8.27.35.8,1.09.58,1.72.66a3.16,3.16,0,0,0,.75.64c25.29,10.37,50.57,20.79,75.92,31,7.13,2.88,14,6.41,21.71,8.4.1-2.29-1-3.65-1.75-5-6.34-11.06-12.81-22-19.12-33.11-6.49-11.37-13.58-22.41-19.4-34.16q-9.46-16.62-18.92-33.23C76.52,128,67.65,113.8,60,98.95c10.31,7.56,20.56,15.2,30.94,22.66,6.24,4.48,11.57,10.24,18.76,13.37l35.09,26.34c14.29,11.35,29,22.13,43.9,32.66.31,1.4-.82,2.1-1.51,3-12.91,16.33-25.89,32.61-38.73,49a7.11,7.11,0,0,1-6.24,3.08q-46.24-.1-92.48,0c-1.85,0-3.41-.05-4.79-1.82Q23,219,.86,190.93a2.87,2.87,0,0,1-.3-.94,17.58,17.58,0,0,1,2.32.69C10.21,194,17.38,197.65,25.4,199Z"/><path class="cls-3" d="M45.6,208c-.63-.08-1.37.14-1.72-.66,3.06-3.85,2.09-8.62,2.63-12.93,4-31.7,7.65-63.44,11.43-95.16a5.1,5.1,0,0,1,.59-1.35L60,98.95c7.66,14.86,16.54,29,24.79,43.55q9.45,16.62,18.92,33.23c-4.1,2.13-8.28,4.13-12.3,6.42C76.17,190.82,60.47,198.66,45.6,208Z"/><path class="cls-4" d="M60,98.95l-1.46-1.08c.32-2,2.12-2.87,3.4-4.08q15-14,30.15-28L122.42,38.1c-2.37,18.8-4.69,37.6-7.14,56.38-1.77,13.51-3.72,27-5.59,40.49-7.2-3.13-12.53-8.89-18.76-13.37C80.55,114.14,70.29,106.51,60,98.95Z"/><path class="cls-5" d="M122.42,38.1,92.09,65.79C87.93,44.37,83.77,23,79.31,0c10.46,9,19.83,16.92,29,25.07C113.07,29.33,118.64,32.75,122.42,38.1Z"/><path class="cls-5" d="M188.69,194c-14.9-10.53-29.62-21.31-43.9-32.66q13.83-7.4,27.66-14.82c1.59-.85,3.16-2.31,3.95.81C180.33,162.91,185.37,178.21,188.69,194Z"/><path class="cls-4" d="M25.4,199c-8-1.38-15.19-5.08-22.51-8.35A17.58,17.58,0,0,0,.57,190c-.84-.67-.63-1.36-.12-2.14,5.87-8.84,11.73-17.68,18.22-27.48Z"/><path class="cls-6" d="M45.6,208c14.87-9.3,30.57-17.15,45.8-25.82,4-2.29,8.2-4.29,12.3-6.42,5.82,11.75,12.91,22.79,19.4,34.16,6.32,11.07,12.79,22.05,19.12,33.11.79,1.38,1.85,2.74,1.75,5-7.67-2-14.59-5.52-21.71-8.4-25.35-10.24-50.62-20.66-75.92-31A3.16,3.16,0,0,1,45.6,208Z"/></g></g></svg>