<svg xmlns="http://www.w3.org/2000/svg" viewBox="0 0 714.94 250.79" width="714.94" height="250.79"><defs><style>.cls-1{fill:#fff;}</style></defs><title>Asset 2</title><g id="Layer_2" data-name="Layer 2"><g id="Layer_1-2" data-name="Layer 1"><path class="cls-1" d="M108.36,134.36a36.27,36.27,0,0,1-3.76-2.16A36.26,36.26,0,0,0,108.36,134.36Z"/><path class="cls-1" d="M84.77,142.49q9.45,16.62,18.92,33.23c5.09,10.28,11.16,20,16.94,29.91-5.79-9.89-11.85-19.63-16.94-29.91Q94.23,159.11,84.77,142.49Z"/><path class="cls-1" d="M103.41,131.39c-.79-.55-1.56-1.12-2.32-1.71C101.85,130.27,102.62,130.84,103.41,131.39Z"/><path class="cls-1" d="M338.37,161.69c-26.28-.06-46.48,19.28-46.53,44.53s19.84,44.51,45.9,44.57c26.27.06,46.3-19.16,46.49-44.61C384.43,181.06,364.52,161.74,338.37,161.69Zm-.37,71.4c-14.77-.08-26.09-11.79-26.12-27,0-15,11.17-26.71,25.72-27,14.85-.24,26.43,11.67,26.45,27.22S353.12,233.17,338,233.09Z"/><path class="cls-1" d="M596,218.95a17.36,17.36,0,0,1,1.58-1.17c13.45-7.24,18.69-17.85,16.08-32.61-2.12-12-11.21-19.94-26-21.58-14.09-1.57-28.29-.33-42.43-.6-1.12,0-2.36-.32-3.2.67V249h19V221.89h14.78L594.19,249H616.6c-3.77-5.47-7.16-10.38-10.54-15.31S599.35,223.91,596,218.95Zm-1.23-25.76a11.5,11.5,0,0,1-11,11.39c-7.4.5-14.86.11-22.67.11V180.21c8.26,0,16.36-.78,24.37.73C591.6,182.12,595,186.84,594.73,193.19Z"/><path class="cls-1" d="M677.92,162.77H660l-37,86.46h19.47l8.05-19.1H687l8,19h20ZM657.5,212.64l11.2-27.18,11.22,27.18Z"/><path class="cls-1" d="M268.05,202.36a85.6,85.6,0,0,0-13.15-4.62c-4.63-1.32-9.27-2.65-13.79-4.3-3.34-1.22-5.64-3.6-5.29-7.56s3.08-5.72,6.5-6.61a22.57,22.57,0,0,1,10.38.09c6.1,1.26,11.32,4.47,16.86,7.66L279.35,173a43.87,43.87,0,0,0-19.47-9.67c-11.54-2.58-22.73-2.39-33.1,4.49-12.77,8.48-15.53,33.93,3.81,41.8,4.14,1.69,8.47,2.91,12.75,4.25,4.91,1.54,10,2.54,14.67,4.78,3.33,1.59,5.31,3.95,4.81,7.85-.46,3.68-3,5.36-6.2,6.34a25.08,25.08,0,0,1-11.36.5c-7.79-1.21-14.25-5.19-20.79-10l-11.19,13.35a54.53,54.53,0,0,0,27.31,13c9.2,1.6,18.26,1.28,26.87-2.73,9.75-4.54,14.27-12.36,14.49-23.06C282.16,213.51,277.2,206.67,268.05,202.36Z"/><path class="cls-1" d="M464.27,180.88h18.45v68.18h19.21V180.77h18.31l13.66-17.42H450.45Z"/><path class="cls-1" d="M418.75,197.52V163.23H400V249h61.63V231.91H418.75Z"/><path class="cls-1" d="M108.36,134.36q.65.32,1.33.62c1.87-13.5,3.82-27,5.59-40.49,2.45-18.78,4.77-37.59,7.14-56.38-3.78-5.35-9.36-8.77-14.14-13C99.14,16.92,89.77,9,79.31,0c4.46,23,8.62,44.37,12.78,65.79q-15.08,14-30.15,28c-1.29,1.2-3.09,2-3.4,4.08a5.1,5.1,0,0,0-.59,1.35c-3.78,31.72-7.44,63.46-11.43,95.16-.54,4.31.43,9.08-2.63,12.93C37.81,204.36,31,203,25.4,199l-6.73-38.65C12.17,170.18,6.32,179,.45,187.86c-.51.77-.72,1.47.12,2.14a2.87,2.87,0,0,0,.3.94Q22.91,219,44.94,247.16c1.38,1.77,2.94,1.82,4.79,1.82q46.24,0,92.48,0a7.11,7.11,0,0,0,6.24-3.08c12.83-16.39,25.82-32.67,38.73-49,.68-.87,1.82-1.57,1.51-3-3.31-15.76-8.36-31.07-12.29-46.66-.79-3.12-2.36-1.67-3.95-.81q-13.82,7.43-27.66,14.82L109.69,135q-.67-.29-1.33-.62"/></g></g></svg>